<?xml version="1.0" encoding="utf-8"?>
<svg version="1.1" id="Layer_1" xmlns="http://www.w3.org/2000/svg" xmlns:xlink="http://www.w3.org/1999/xlink" x="0px" y="0px"
	 viewBox="0 0 1856 1703.469" enable-background="new 0 0 1856 1703.469" xml:space="preserve">
<g>
	<path d="M632.69,1651.735c7.996-52.909,12.726-130.646,34.186-354.297c22.91-238.766,29.456-236.016,20.997-237.587
		c-8.376-1.556-1.865-8.908-9.523-26.987c-8.661-20.446-5.381-51.708-3.398-74.391c6.719-76.879,11.548-71.975,7.427-76.837
		c-10.821-12.768-15.007-27.69-14.155-44.232c0.229-4.443,0.111-4.474-4.649-4.983c-3.564-0.38-16.597,0.938-16.187-6.166
		c0.058-1.005,0.792-18.462-0.703-25.211c-1.672-7.544,1.626-11.4,11.657-74.748c4.668-29.477,9.07-101.901,13.818-151.989
		c0.712-7.508,2.175-1.627-42.817-20.032c-18.866-7.718,3.613-0.522-46.875-18.178c-60.945-21.313-48.353-18.931-72.627-19.059
		c-59.728-0.315-53.424,9.85-112.398,4.218c-20.421-1.95-39.004-6.625-57.379-36.443c-9.187-14.908-35.229-45.319-54.495-97.983
		c-2.676-7.316-15.039-3.069-29.845-7.764c-8.281-2.626-32.116,0.032-33.117,0.153c-36.524,4.411-136.823-19.03-138.077-21.594
		c-2.419-4.946-7.41-4.866-13.829-6.573c-10.025-2.666-0.63-9.768-8.798-11.297c-4.807-0.9-5.832-2.37-5.468-5.829
		c1.385-13.173,14.594-3.929,17.076-11.851c0.79-2.522,3.07-3.92,5.738-4.174c6.451-0.616,12.893-1.745,19.394-0.3
		c3.278,0.728,35.928-0.976,36.929-1.02c3.518-0.155,6.807-1.265,4.273-3.963c-3.038-3.234-7.55-5.325-6.114-10.147
		c3.141-10.545,59.078,1.155,77.606-2.97c2.903-0.646,24.795,9.228,33.763,12.688c3.185,1.229,5.609,3.918,7.944,6.504
		c11.728,12.985,23.836,10.945,27.344,7.083c9.172-10.098,48.927,8.787,99.804,3.615c16.599-1.687,29.595,2.331,58.383-3.256
		c3.094-0.6,2.341-0.335,56.326-0.636c13.047-0.073,34.098-3.05,34.098-3.05c2.972,1.686,4.827,1.187,6.001-2.228
		c0.465-1.353,2.357-1.333,3.591-1.276c5.457,0.253,10.347-2.722,15.775-2.608c5.09,0.107,0.369-3.056,8.973-5.124
		c5.414-1.302,10.001-4.645,15.17-6.103c22.646-6.389,27.466-2.077,44.854-3.873c68.561-7.084,39.77-8.842,112.593-16.208
		c12.124-1.226,24.041,1.346,36.098,0.23c5.104-0.472,9.906-2.128,15.053-2.5c18.619-1.345,19.545,3.465,30.101-3.024
		c11.049-6.792,20.728-1.25,26.295-0.028c3.844-8.673,4.857-17.653,4.611-26.902c-0.368-13.861,5.531-20.808,5.736-32.497
		c0.104-5.975,1.847-11.725,3.32-17.456c5.859-22.798,5.295-115.137,45.19-137.808c2.567-1.459,5.457-1.268,8.13-2.516
		c4.806-2.244,9.51-5.037,14.906-5.815c2.652-0.383,5.544-3.083,7.899,0.876c0.468,0.787,6.93-1.687,7.888-2.829
		c2.881-3.434,8.449-4.086,11.922-1.203c0.96,0.797,1.81,1.675,2.928,0.967c6.778-4.296,21.943,2.095,28.6,7.421
		c7.251,5.802,12.585,13.53,18.915,20.272c2.523,2.688,3.487,6.745,5.454,9.794c3.431,5.318,1.62,11.971,5.402,16.954
		c0.731,0.964,4.035,38.575,2.169,48.509c-2.101,11.19,0.705,7.628,0.596,17.528c-0.176,16.021,2.519,6.88,1.882,22.709
		c-0.04,1.005-1.885,52.606-1.767,54.163c0.427,5.62,1.461,11.17,1.183,16.869c-0.792,16.257-1.604,14.61,21.256,14.407
		c7.529-0.067,8.615,2.611,12.368,1.937c8.199-1.472,8.957,2.715,18.234,3.709c1.009,0.108,40.197,4.221,41.529,4.479
		c10.43,2.02,77.57,19.87,95.578,28.03c7.991,3.621,4.536,0.198,48.151,9.648c9.828,2.129,19.647,4.73,29.608,5.706
		c11.271,1.105,21.597,5.875,32.781,7.048c2.041,0.214,19.681,1.165,21.048-0.393c4.091-4.661,15.084-1.434,48.289-6.808
		c4.507-0.729,28.557-1.442,44.019,1.548c0.08,0.015,23.569,0.2,37.211,1.734c1.505,0.169,3.112,0.277,4.564-0.056
		c13.373-3.062,15.12,1.17,42.866-6.498c2.533-0.7,5.323-0.456,7.872-1.118c30.615-7.951,8.667-4.595,39.054-8.338
		c4.984-0.614,2.43,7.462,10.502,5.626c6.259-1.424,21.353-2.942,23.734-6.984c4.827-8.196,29.322-18.625,35.012-20.952
		c16.854-6.893,21.998-1.105,34.363-4.252c17.114-4.356,5.027-4.233,37.254-4.599c11.389-0.129,15.682-2.839,16.672,3.851
		c1.18,7.973-3.599,7.189-3.677,13.084c2.898,0.753,6.085-0.516,8.89,1.089c0.65,0.372,1.414-0.164,2.122-0.518
		c12.708-6.363,20.963,0.98,25.733-3.962c0.254-0.263,0.726-0.616,0.976-0.539c3.93,1.219,7.386,0.403,11.349-0.861
		c3.464-1.105,7.839,0.505,11.856,0.558c7.758,0.103,2.205,8.668,10.045,8.119c8.051-0.564,9.472,1.853,11.419,7.758
		c1.146,3.476,0.89,6.772-7.603,9.073c-5.796,1.571,2.596,9.498-9.874,11.726c-19.132,3.418-9.1,8.239-17.817,10.955
		c-1,0.312-43.04,14.976-52.46,16.874c-42.037,8.471-43.391,10.886-50.146,10.516c-0.57-0.031-1.207-0.098-1.712,0.104
		c-24.785,9.923-88.576-7.488-92.078,17.306c-4.303,30.471-24.065,75.688-58.084,110.562
		c-17.157,17.588-63.964,19.852-157.123,25.312c0,0-24.004,4.915-41.77,6.114c-22.221,1.499-25.45,1.857-30.808,4.202
		c-6.136,2.685-118.006,32.991-128.979,33.362c-0.271,20.953,13.689,303.436,13.741,304.436
		c1.289,24.979,4.226,142.76,6.044,181.965c1.401,30.203,1.966,31.078-3.8,40.113c-4.472,7.009-6.102,11.993-9.708,18.159
		c-4.744,8.113-5.421,10.291-2.561,77.366c0.779,18.266,1.441,110.45,4.402,117.389c1.076,2.521,0.121,5.312-1.114,7.766
		c-6.226,12.365-14.351,12.602-19.822,13.109c-11.178,1.037-8.211-5.143-5.832,63.414c0,0.005,8.153,250.718,8.153,250.718
		C971.025,1651.735,801.857,1651.735,632.69,1651.735z"/>
</g>
</svg>
