<?xml version="1.0" encoding="utf-8"?>
<!DOCTYPE svg PUBLIC "-//W3C//DTD SVG 1.1//EN" "http://www.w3.org/Graphics/SVG/1.1/DTD/svg11.dtd">
<svg version="1.1" id="Layer_1" xmlns="http://www.w3.org/2000/svg" xmlns:xlink="http://www.w3.org/1999/xlink" x="0px" y="0px"
	 viewBox="0 0 1447 3017" enable-background="new 0 0 1447 3017" xml:space="preserve">
<path d="M319.61,50.6c2.92-4.37,4.47-9.96,9.29-12.75c2.42,3.89,3.87,8.27,5.73,12.44c2.3,5.8-1.21,11.58-3.55,16.75
	c-3.82,7.54-0.61,17.06-6.1,23.96c-4.67,5.55-11.89,7.98-17.34,12.65c-7.54,6.45-14.87,13.54-19.69,22.33
	c-5.9,10.21-10.4,21.15-15.01,31.98c-3.81,8.55-8.79,16.88-16.29,22.7c-3.34,2.76-7.47,4.39-10.7,7.29
	c-3.07,3.04-5.27,6.81-7.68,10.37c-2.17,3.55-7.44,3.93-9.01,7.95c-0.6,5.69-0.79,11.62,1.21,17.08c1.1,2.63,0.39,6.8,3.65,7.94
	c2.94,0.72,7.7,0.46,8.1-3.39c0.66-2.44-0.75-6.33,2.36-7.36c4.33-1.88,9.4,0.53,13.5-2.13c0.47,3.27,0.67,6.58,0.66,9.89
	c4.63,1.27,9.36-0.71,14.02,0.18c2.27,0.73,4.29,2.21,5.91,3.96c1.23,2.7,0.2,5.93,1.32,8.67c2.34,3.18,6.63,3.8,10.26,4.48
	c3.91,0.69,6.65-2.65,8.83-5.34c2.88,1.74,6.05,2.86,9.24,3.86c-1.38,3.85-4.59,6.9-5.51,10.89c0.67,3.22,3.73,5.29,6.41,6.82
	c3.63-0.75,7.18-2.18,10.98-1.63c-1.8,4-5.7,6.35-8.09,9.92c-2.11,3.16,0.44,7.15-0.6,10.39c-3.8,2.86-9.08,5.21-9.82,10.5
	c-0.71,3.42,1.9,5.96,3.56,8.6c0.64,2.6-0.45,5.37,0.26,7.99c1.55,2.98,4.12,5.3,5.52,8.38c2.54,5.21,5.47,10.27,7.17,15.84
	c1.6,5.06,0.44,10.66-2.27,15.13c-2.65,4.57-7.66,7.32-9.64,12.35c-2.43,5.84-7.17,10.3-12.47,13.55
	c-14.95,9.39-32.44,13.23-49.53,16.63c-0.44,3.81,0.36,7.6,0.35,11.4c-0.4,6.05-4.23,11.29-8.98,14.81c-2.48,2.2-6.3,3.71-6.7,7.43
	c-0.64,5.09-1.96,10.45-0.61,15.51c2.4,3.89,6.95,5.73,10.1,8.95c4.22,4.18,9.15,7.52,13.82,11.15c4.85,3.68,7.96,9.06,10.53,14.47
	c4.91,11.01,8.43,22.58,13.48,33.53c7.56,16.45,14.12,33.33,20.88,50.12c8.65,21.98,16.1,44.41,24.35,66.55
	c3.89,11.65,7.55,23.37,10.91,35.19c1.7,5.88,2.79,11.99,5.38,17.59c4.09,8.82,7.36,18,11.1,26.98
	c12.05,28.18,24.36,56.28,38.43,83.53c3.1,6.08,6.27,12.16,10.2,17.76c2.91,4.06,4.17,8.98,6.61,13.3
	c2.88,5.16,5.52,10.47,8.73,15.44c1.78,2.86,5.35,3.51,8.28,4.63c30.53,9.55,60.96,19.42,91.2,29.86
	c29.07,10.33,58.42,19.87,87.35,30.6c1.71,0.48,4.01,1.48,5.33-0.29c4.09-4.03,6.6-9.31,10.24-13.71c2.95-3.7,6.59-6.75,10.32-9.64
	c1.81-1.53,4.09-3.01,4.5-5.54c-1.65-2.96-4.2401-5.22-6.35-7.83c-17.26-20.43-35.16-40.3-51.92-61.15
	c-25.31-30.09-50.09-60.61-74.58-91.36c-1.8-2.13-3.21-4.58-3.76-7.33c0.68,0.35,2.05,1.04,2.73,1.38
	c46.92,42.68,93.82,85.44,139.39,129.58c8.46,8.19,17.37,15.94,25.3,24.67c1.11,1.09,2.31,2.44,4.06,2.27
	c8.41-0.15,16.86-0.64,25.24,0.36c4.17,0.39,8.36,0.98,12.56,0.89c2.16-0.22,3.56-2.38,2.95-4.45
	c-4.72-41.64-9.11-83.33-12.02-125.14c-0.43-7.46-1.81-14.96-0.72-22.42c1.3101,0.86,2.48,1.97,2.8701,3.57
	c9.2599,26.95,18.3199,53.97,26.87,81.15c8.15,25.09,15.34,50.49,23.49,75.5699c0.92,3.4301,4.86,4.02,7.64,5.31
	c11.44,4.29,22.35,9.88,32.84,16.13c3.09,1.8,5.96,4.07,9.37,5.28c3.44-0.48,4.64-4.43,6.86-6.65
	c11.69-13.62,23.54-27.13,35.66-40.39c13.09-14.8701,27.09-28.9,40.37-43.6c1.63-1.93,3.69-3.45,6.15-4.17
	c-0.84,4.45-2.81,8.55-4.57,12.69c-12.34,29.59-25.97,58.63-39.26,87.81c-1.18,2.31-1.77,4.86-1.51,7.47
	c11.55,3.15,22.14,8.92,33.3,13.16c10.51,4.44,20.23,10.76,28.74,18.36c1.29,1.48,3.3,0.88,4.97,0.56
	c28.73-6.82,57.63-12.94,86.65-18.43c9.35-1.51,18.55-4.19,28.04-4.71c-1.06,4.12-5.44,5.35-8.7,7.22
	c-9.05,4.88-18.08,9.8-27.04,14.85c-17.55,9.67-35.61,18.36-53.42,27.53c-1.99,0.88-4.58,2.92-3.15,5.35
	c3.47,7.76,8.13,14.95,11.42,22.81c5.76,11.77,8.55,24.69,10.68,37.54c1.65,10.25,1.31,20.66,1.12,31
	c-0.54,11.65-2.68,23.2101-6.05,34.38c-0.93,3.02-1.68,6.16-1.36,9.36c6.75,1.64,13.71,3.67,19.16,8.17
	c3.74,3.01,6.26,7.17,8.91,11.1c4.88,7.17,7.75,15.4401,10.39,23.64c3.51,12.5,3.79,25.6901,2.79,38.5699
	c-1.53,9.7301-3.62,19.4701-7.34,28.63c-2.04,4.7301-0.09,9.8101,0.79,14.5801c2.02,10.13,4.19,20.2999,4.9,30.62
	c0.71,9.15-5.55,16.84-12.01,22.53c-7.27,6.1399-15.79,10.5299-24.2,14.86c-1.33,0.88-3.57,1.5499-3.16,3.5699
	c0.35,2.6801,2.57,4.62,4.06,6.76c7.15,9.12,13.93,18.62,22.32,26.6801c2.23,2.1,5.49,2.5199,8.43,2.73
	c3.88,0.1799,5.26-5.14,9.09-5.1c6.55,0.23,12.74,2.75,18.82,5.01c4.97,1.86,10.39,3,14.59,6.45c2.41,2.0699,5.42,3.1899,7.99,5.03
	c1.5701,1.85,2.4,4.23,4,6.0699c2.53,1.22,5.37,1.7001,7.87,3.04c2.8301,1.4399,5.12,3.73,7.9501,5.2
	c3.0299,0.8301,6.2999,0.4,9.2699,1.5601c5.87,2.1,11.8201,5.49,14.5801,11.37c1.63,3.99,6.0399,5.2999,9.03,8.01
	c3.62,2.8099,6.21,6.63,8.5599,10.51c1.65,2.99,4.76,4.6,7.47,6.47c5.8,3.74,10.49,8.87,15.76,13.28
	c6.6901,5.8099,11.73,13.1899,16.16,20.7899c2.24,3.9401,5.55,7.1,8.6899,10.3301c14.2301,14.9099,28.0701,30.35,39.4,47.63
	c4.3401,7.83,9.8301,14.98,13.9501,22.9399c2.96,5.64,2.51,12.16,3.01,18.3201c0.1499,3.1299,1.4099,6.34,3.8999,8.37
	c2.3201,0.35,3.65-1.9301,5.0901-3.3401c2.72-2.96,4.83-6.5499,8.09-8.98c4.0599-0.72,8.15,0.97,12.17,1.5601
	c9.59,2.23,19.38,3.58,28.8999,6.09c3.9,1.4399,2.2101,6.1899,1.65,9.21c-2.2,12.03-7.1699,23.61-7.15,35.97
	c-0.5599,4.42-2.49,8.52-3.2,12.92c-0.84,4.9401-2.09,9.8-3.04,14.72c-0.4199,2.77-0.96,5.8401,0.4301,8.4501
	c6.5,11.38,13.98,22.1599,20.2,33.71c9.25,15.37,18.9501,30.47,28.15,45.88c4.59,6.4301,7.24,13.95,11.2,20.77
	c4.4501,8.91,10,17.35,13.14,26.88c0.7001,4.23,6.17,3.5599,8.36,6.63c3.4,3.97,2.4901,9.5,2.67,14.3199
	c5.2,0.78,11.09-0.6699,15.73,2.37c3.3201,3.7001,5.03,8.6,6.5801,13.28c1.5699,4.6,0.7999,10.08,4.1399,13.99
	c2.41,3.09,4.0701,6.66,5.79,10.1801c4.55,8.7899,4.77,19.11,3.49,28.73c-1.3199,6.45,2.8,12.28,2.9601,18.66
	c1.0599,7.33-1.3,14.83,0.8099,22.0399c1.4301,8.8201,2.41,18.62,8.72,25.54c4.8501,5.58,7.64,12.51,11.02,19.01
	c4.55,8.8199,8.02,18.13,11.54,27.41c2.09,5.5099,3.77,11.1899,5.0499,16.96c3.1001,11.38,2.66,23.46,0.78,35.02
	c-0.6,4.8199-3.23,9.4399-2.21,14.39c1.14,7.58,1.96,15.36,0.5699,22.98c-1.13,6.12-1.1899,12.3799-2.39,18.49
	c-0.86,4.55-2.7799,8.8201-3.72,13.3599c-1.22,7.6101-8.4399,12.29-10.5,19.5701c-1.36,6.1602-2.0699,12.49-1.83,18.8201
	c0.3199,12-0.15,24.02-1.37,35.97c-0.9401,16.5901-2.55,33.52-9,49.01c-4.2001,11.2-10.54,21.52-18.38,30.53
	c-3.98,4.1699-4.0601,10.21-5.62,15.45c-3.11,10.8901-6.6801,21.77-12.28,31.6699c-4.0699,7.6702-9.0699,14.8-14.24,21.77
	c-5.85,7.1101-12.75,13.29-19.97,18.99c-4.49,3.48-8.17,7.9602-13.0901,10.8901c-5.0299,3.3101-10.86,5.1399-16.74,6.21
	c-7.2,1.29-13.7999,4.6299-20.9299,6.1499c-7.87,1.6001-15.8201-0.21-23.7101-0.6099c0.1101,13.6599,1.6101,27.27,1.67,40.95
	c0.05,13.6499,0.74,27.3,0.98,40.96c3,37.0701,4.89,74.1899,6.8401,111.3201c0.0399,8,0.2999,16,1.0199,23.99
	c1.66,28.22,2.54,56.46,4.1901,84.6699c0.51,11.7,2.26,23.3401,1.97,35.0701c0.04,6.3101,0.9,12.6001,0.98,18.9399
	c0.38,12.71,1.9501,25.3501,2.3,38.0701c0.39,6.3101,1.4299,12.5701,1.74,18.8999c0.6899,12.03,2.75,23.9502,3.11,36.02
	c0.85,9.6602,0.24,19.3901,1.39,29.05c0.11,12.4099,2.36,24.6499,3,37.04c1.29,12.3,0.2,24.8301,2.88,36.98
	c1.23,9.6101,1.33,19.3501,2.91,28.9399c0.33,3.6201,1.86,7.24,1.2999,10.9202c-3.74,4.49-10.0599,6.21-13.27,11.2598
	c0.02,13.6602,1.9801,27.2102,2.9301,40.8301c0.6801,12.0601,2.63,23.99,3.58,36.04h-793.4c-0.24-11.3501,0.45-22.7,0.12-34.03
	c-0.26-6.3699,2.12-13.1899-1.02-19.1299c-2.47-5.26-4.22-10.8401-7.11-15.8801c-2.02-3.6099-4.8-6.75-6.42-10.5701
	c-6.49-16.3398-10.32-33.6199-17.24-49.7798c-8.92-25.6401-16.02-51.8901-25.46-77.3501c-2.28-7.1899-2.36-14.78-2.83-22.22
	c-0.49-9.3601-1.93-18.6602-1.74-28.04c-0.76-22.52-0.21-45.0801,1.27-67.55c1.54-8.4299,0.63-16.99,1.24-25.47
	c2.93-24.28,2.77-48.8201,5.61-73.1099c1.82-15.3201-1.17-30.6101-0.92-45.9302c-0.7-9.3-0.49-18.6199-0.35-27.9199
	c0.28-8.24-3.02-15.9299-4.48-23.9099c-4.01-15.6301-6.65-31.5601-10.45-47.24c-2.9-10.0901-5.2-20.3601-8.84-30.2202
	c-2.56-7.5298-3-15.5498-4.78-23.26c-4.84-23.98-7.53-48.3098-11.24-72.47c-1.23-23.3398-6.08-46.29-7.79-69.5798
	c-2.25-38.1902-1.1-76.4502,0.08-114.6501c0.75-12.1499,2.6-24.1799,3.95-36.25c1.87-10.49,3.82-20.98,4.8-31.5898
	c0.28-10.48,1.94-20.8401,3.2-31.2101c-0.02-9.25-1.94-18.39-2.16-27.63c-1.2-15.65-0.84-31.35-0.6-47.01
	c-0.95-26.42,0.71-52.85,3.95-79.05c0.55-4.7,0.27-9.46,1.16-14.11c3.77-21.1599,9.64-41.87,15.12-62.63
	c3.79-11.1499,6.57-22.59,9.87-33.87c1.14-4.26,1.16-8.7,2.17-12.96c2.6-11,6.14-21.72,9.85-32.38c2.18-5.8,5.98-10.76,8.78-16.24
	c8.5-15.86,18.56-30.79,27.69-46.27c2.03-3.14,1.41-7.05,1.8-10.5699c0.3-7.99,3.17-16.3501-0.27-24.04
	c-3.13-6.83-7.19-13.26-9.3-20.52c-3.64-12.0699-3.88-24.83-4.4-37.33c-0.96-10.54,2.57-20.72,4.03-31.04
	c0.02-1.26-0.22-2.45-0.72-3.58c-7.01-16.51-13.58-33.38-17.06-51.03c-0.64-3.74-5.02-4.28-7.49-6.4301
	c-2.79-1.7799-5.59-5.8899-9.3-4.1c-10.42,4.14-22.74,8.15-33.48,2.86c-4.6-1.88-4.29-7.5599-3.9-11.64
	c1.16-8.1499,3.13-16.1799,4.25-24.34c0.47-3.74-3.55-6.13-3.77-9.75c-0.47-2.6799,0.38-5.6699-0.8-8.12
	c-3.16-2.8199-6.81-5.12-9.35-8.58c-3.07-4.22-8.45-6.5901-10.23-11.73c-1.83-5.64-3.23-11.5601-2.79-17.53
	c0.94-13.0601-2.26-26.1-0.2-39.12c3.58-23.36,9.47-46.4301,18.01-68.47c2.41-7.3201,4.4-14.76,6.78-22.0901
	c2.91-9.5599,7.11-18.6899,9.99-28.26c0.76-2.25,0.39-4.64-0.57-6.75c-7.52-18.47-13.99-37.35-21.19-55.9399
	c-8.47-22-15.63-44.47-23.11-66.8101c-2.57-9.6599-11.99-14.84-17.06-22.95c-10.08-16.35-14.07-35.45-22.29-52.67
	c-2.85-6.28-5.15-12.79-7.89-19.1199c-11.91-28.34-20.46-58.02-26.68-88.1c-4.11-18.79-7.91-37.64-11.65-56.51
	c-1.19-9.03-2.88-17.98-5.23-26.78c-2.36-13.6-5.36-27.07-7.59-40.69c-2.51-13.91-6.12-27.65-7.4-41.75
	c-1.52-13.54-4.2-26.94-5.25-40.53c-0.78-9.84-2.8-19.52-3.93-29.32c-0.08-1.44-1.28-2.35-2.13-3.36c-0.87,2.79-1.4,5.68-2.27,8.48
	c-1.17,3.74-5.19,5.5099-6.78,9c-3.09,6.16-0.93,13.37-3.29,19.75c-1.16,4.89-4.58,8.6299-7.81,12.27
	c-0.19,4.12,1.64,8.25,0.38,12.34c-1.74,5.85-5.75,10.66-9.88,15.01c-4.1,4.5-9.48,8.4-15.68,9.04
	c-6.32-0.98-11.29-5.66-15.41-10.24c-3.55-4.03-7.2-8.29-8.53-13.62c-1.18-4.23,0.13-8.54,0.29-12.79
	c-1.78-1.45-4.13-2.05-5.79-3.65c-2.5-6.12-2.65-12.9-2.32-19.41c0.26-4.07-1.03-7.96-2.42-11.71c-1.09-2.85-1.32-6.18-3.55-8.46
	c-2.55-2.83-4.65-6.04-7.35-8.73c-3.23-3.18-2.06-8.13-1.87-12.15c0.04-3.72,3.54-5.93,4.65-9.22c0.21-1.92,0.01-3.85,0.03-5.76
	c-0.53-4.72,3.8-7.77,5.36-11.83c2-3.8,0.27-8.08,0.39-12.1c0.24-17.23-1.55-34.39-2.05-51.6c-0.26-2.45-0.31-5.66-2.93-6.82
	c-5.12-2.67-10.54-5.2599-14.17-9.93c-2.43-3.2-5.78-6.32-5.83-10.63c-0.03-3.46-0.1-7.49,2.36-10.21c3.25-2.7,7.76-2.74,11.43-4.62
	c1.09-1.06,2.01-3.73-0.13-4.19c-6.37-2.44-14.24-3.84-17.74-10.45c-2.04-4.86-1.69-10.56-0.35-15.55
	c3.07-6.7,11.49-6.81,17.72-8.18c2.05-0.07,2.58-2.26,3.53-3.67c-6.73-3.51-13.77-6.87-19.19-12.32c-3.24-3.74-2.69-9.17-1.83-13.68
	c0.8-5.26,5.63-8.26,9.22-11.62c2.71-2.55,6.57-2.74,9.86-4.06c1.25-0.65,1.57-2.15,1.35-3.42c-1.16-8.6,0.7-17.49-1.88-25.92
	c-0.63-1.6-2.2-2.51-3.47-3.55c-4.77-3.59-9.61-7.84-11.46-13.73c-1.75-5.12,0.87-10.34,0.17-15.54c-18.26-4.03-37.04-8.86-52.41-20
	c-4.64-3.14-7.96-7.8-10.11-12.92c-1.75-4.34-6.52-6.27-8.63-10.38c-2.44-4.41-4.54-9.77-2.74-14.79c1.93-5.39,4.45-10.62,7.77-15.3
	c2.54-3.67,3.57-8.14,6.21-11.76c3.37-4.57,4.35-10.52,3.65-16.06c-0.19-3.21-4.97-3.24-5.2-6.37c-0.58-2.41-0.7-5.08-2.34-7.06
	c-2.37-3.48-6.55-5.09-8.89-8.57c2.67-0.38,6.01,0.54,8.07-1.71c1.67-1.85,3.14-4.94,1.33-7.18c-1.82-2.95-4.33-5.58-5.05-9.08
	c3.69-0.18,7.36,0.57,10.42,2.72c1.87,1.74,3.93-0.2,5.79-0.92c-0.74-3.01-1.38-6.1-0.92-9.22c1.8,1.95,1.84,4.67,2.23,7.14
	c2.81-0.4,6.67,0.72,8.5-2.07c3-4.16-2.52-10.05,1.44-13.78c5.23-0.98,10.84,2.48,15.72-0.62c0.81,2.86,0.99,6.32,3.93,7.87
	c1.12-1.43,2.36-2.81,3.15-4.47c0.84-3.29,0.12-6.75,0.79-10.07c3.15-3.12,7.81-1.51,11.65-1.12c3.58,0.69,6.86-1.73,10.44-1.33
	c2.69,0.27,5.23,1.31,7.91,1.66c2.62-1.17,2.35-4.32,2.87-6.67c0.45-3.72,4.05-6.8,2.84-10.72c-2.72-3.02-7.48-3.84-9.28-7.7
	c-1-1.94-2.12-3.82-3.49-5.52c-6.3-7.72-11.32-16.41-15.64-25.38c-4.04-9.77-7.37-20.52-5.35-31.17c0.96-8.65,3.6-17.23,8.72-24.35
	c4.76-5.2,9.51-10.66,15.78-14.09c8.85-5.48,19.9-7.13,27.41-14.71c5.14-5.19,8.22-12.41,14.76-16.15
	c7.71-3.93,17.35-3.97,23.84-10.22c3.36-2.92,4.84-8.43,9.8-9.14c1.64-0.48,3,0.67,3.82,1.97c3.01,4.42,5.91,9.36,5.72,14.9
	c-0.21,8.35-2.47,16.55-2.23,24.92c-0.03,1.87,0.98,3.64,2.64,4.52c5.43-2.37,9.72-6.6,14.56-9.92c4.02-2.72,8.27-6.02,13.43-5.53
	c-1.02,3.13-2.8,6.28-1.79,9.67c5.08,0.41,10.17-0.05,15.25,0.27c-0.31,2.24-0.68,4.47-1.07,6.7c5.52-1.15,8.83-5.97,13.22-9.01
	c4.22-2.97,8.78-5.5,13.63-7.3c9.51-3.64,20.22-1.29,29.62-5.38c4.21-2.29,7.46-6.04,9.95-10.08
	C315.75,58.1,317.25,54.12,319.61,50.6 M420.87,843.58c-0.86,4.11,1.87,7.55,3.55,11.03c6.34,12.28,13.71,24.03,19.39,36.65
	c10.7,22.31,20.42,45.06,30.04,67.86c2.38,6.67,5.99,12.99,7.04,20.08c1.21,7.12,3,14.12,4.56,21.17
	c1.23,6.76,2.47,13.52,3.99,20.23c0.31,1.1801,0.54,2.59,1.75,3.25c3.94-0.87,7.43-3.0699,11.2-4.46
	c21-9.29,42.32-17.86,63.62-26.44c9.47-3.75,19.11-7.22,28.32-11.57c3.73-2.35,0.76-6.6-0.03-9.72c-3.73-12.92-6.3-26.52-4.54-39.99
	c0.02-1.75,0.8-4.33-1.28-5.18c-53.14-25.51-106.01-51.63-158.53-78.4C426.92,846.59,424.14,844.56,420.87,843.58 M581.32,1017.21
	c-28.81,4.84-57.8,8.6-86.76,12.35c-1.92-0.1001-2.55,1.9199-2.73,3.48c0.31,4.2899,2.47,8.12,3.97,12.09
	c1.09,2.49,1.81,5.33,3.85,7.26c2.74,0.6,5.65-0.4,8.35,0.65c3.62,0.8099,6.57,3.26,8.83,6.12c3.42,4.2899,7.46,8.1599,9.9,13.15
	c1.82,4.11,7.2,3.0599,10.12,5.83c4.96,4.47,10.06,9.42,11.92,16.0699c1.05,4.4701,4.36,7.8501,7.3,11.2101
	c1.68-0.03,2.97-1.2201,4.28-2.11c10.72-8.01,21.72-15.63,32.64-23.3701c1.83-1.1299,3.48-3.6,1.8-5.5699
	c-4.1-6.4301-6.42-13.8099-7.57-21.3c-1.28-11.2799-0.92-22.6399-0.42-33.95C587.06,1015.83,583.31,1016.88,581.32,1017.21
	 M615.32,1097.27c-17.38,6.1699-34.81,12.2-52.45,17.59c-1.63,0.48-3.56,1.27-3.72,3.25c0.85,4.46,3.87,8.27,4.58,12.79
	c-0.76,3.36-4.25,5.95-3.35,9.7c1.81,2.17,5.16,1.91,7.14,3.91c2.19,2.02,2.65,5.1899,4.49,7.45c2.17,1.14,4.59,1.9,6.42,3.62
	c2.75,2.61,6.76,3.91,8.57,7.4501c3.2,5.53,1.46,12.1799,0.27,18.0499c-0.62,2.15,1.31,3.67,2.42,5.2301
	c4.52,5.48,5.27,12.85,6.3,19.61c0.3,2.5599,2.25,4.4199,3.53,6.5299c1.14,1.74,1.31,3.9,2.28,5.75c1.42,1.54,3.21,2.75,4.48,4.4601
	c0.95,2.4299,0.67,5.1599,1.48,7.65c2.32,3.4399,6.15,5.4099,9.77,7.24c3.74,1.73,5.7599,5.6799,9.47,7.49
	c3.7,2.62,8.46,1.96,12.58,3.4199c12.83,4.04,24.22,11.39,36.48,16.76c2.74,0.86,3.12-2.71,3.56-4.5399
	c0.25-2.26,1.18-5.6901-1.58-6.7401c-6.46-2.99-13.07-5.8199-18.66-10.3099c-5.41-3.28-7.4-9.74-8.44-15.61
	c-0.81-4.4301,0.29-8.99-0.7-13.38c-5.28-16.92-9.77-34.13-12.37-51.6801c-0.47-2.12,0.15-5.46-2.55-6.1899
	c-5.41-1.89-12.65-4.14-13.61-10.73c0.15-7.23,3.5099-13.91,4.47-21.03c1.49-5.84-2.22-11.05-3.9-16.39
	c-1.69-3.72-1.11-7.96-2.39-11.74C618.35,1096.45,616.77,1096.73,615.32,1097.27z"/>
</svg>
