<svg id="Capa_1" enable-background="new 0 0 486.705 486.705" height="512" viewBox="0 0 486.705 486.705" width="512" xmlns="http://www.w3.org/2000/svg"><path d="m462.928 349.429c-4.227-1.409-8.895-3.225-13.902-5.415 24.256-36.191 37.666-77.643 37.666-118.044 0-110.795-58.476-191.206-139.052-191.206-23.577 0-71.376 0-104.289 33.135-32.913-33.135-80.712-33.135-104.289-33.135-80.576 0-139.052 80.41-139.052 191.206 0 40.774 13.664 82.634 38.345 119.062-4.21 1.477-8.232 2.699-12.018 3.65-18.621 4.651-29.942 23.527-25.292 42.166 4.685 18.622 23.56 29.995 42.164 25.293 13.427-3.361 29.009-9.099 45.627-16.873 40.585 32.032 93.324 52.673 154.516 52.673 62.516 0 116.205-21.541 157.13-54.778 16.872 8.878 31.097 15.108 40.449 18.231 18.264 6.111 37.92-3.768 43.98-21.983 6.075-18.214-3.77-37.905-21.983-43.982zm-393.394-123.459c0-70.497 29.246-121.676 69.526-121.676 45.694 0 69.526 3.089 69.526 69.529 0 49.007-54.164 103.768-108.261 139.262-19.774-26.276-30.79-57.12-30.791-87.115zm173.816 156.442c-33.354 0-63.178-8.318-88.334-22.118 34.084-24.308 66.793-54.846 89.912-89.135 24.477 33.356 58.221 62.858 91.423 86.47-26.089 15.378-57.559 24.783-93.001 24.783zm145.315-72.449c-54.164-36.513-110.553-90.188-110.553-136.139 0-66.44 23.832-69.529 69.526-69.529 40.28 0 69.526 51.18 69.526 121.676.001 28.823-10.166 58.41-28.499 83.992z"/></svg>